<svg xmlns="http://www.w3.org/2000/svg" xmlns:svgjs="http://svgjs.com/svgjs" xmlns:xlink="http://www.w3.org/1999/xlink" width="288" height="288"><svg xmlns="http://www.w3.org/2000/svg" width="288" height="288" viewBox="0 0 24 24"><path fill="#4db8f1" d="M6.532 19.554c-.146 0-.276-.009-.386-.026v.485c.226.09.413.135.566.135.573 0 1.101-.35 1.583-1.053.616-.91 1.114-2.371 1.492-4.379h-.88a14.741 14.741 0 0 1-.835 3.419c.028-.209-.041-.576-.205-1.102l-.727-2.317h-.91l1.014 3.099c.153.465.23.775.23.927 0 .219-.098.417-.295.594-.164.144-.379.218-.647.218z" class="color105E86 svgShape"/><path fill="#de8a03" d="M19.482 13.293v5.429h2.63v-.668h-1.745v-4.761z" class="colorDE8A03 svgShape"/><path fill="#4db8f1" d="M1.04 14.392h.01l1.4 4.33h.705l1.41-4.33h.008a49.03 49.03 0 0 1 .27 4.33h.93a57.767 57.767 0 0 0-.428-5.429H4.25l-1.347 3.99h-.008l-1.335-3.99H.41A54.641 54.641 0 0 0 0 18.722h.845c.027-1.588.092-3.031.195-4.33z" class="color105E86 svgShape"/><path fill="#de8a03" d="M18.679 15.906c0-1.796-.718-2.696-2.155-2.696-.704 0-1.254.228-1.65.684-.43.499-.646 1.233-.646 2.204 0 .954.19 1.655.574 2.101.35.403.877.604 1.583.604.264 0 .506-.032.725-.096l1.325.758.36-.61h-.003l-1.016-.491c.09-.075.177-.155.255-.245.433-.498.648-1.236.648-2.213zm-2.203 2.225c-.445 0-.77-.164-.978-.491l.002-.005c-.225-.353-.337-.923-.337-1.704 0-1.368.424-2.052 1.27-2.052.443 0 .77.164.977.491.224.355.336.919.336 1.692 0 1.378-.424 2.069-1.27 2.069zM13.2 16.074s-.794-.447-1.187-.658c-.432-.236-.666-.513-.666-.834a.67.67 0 0 1 .248-.515c.152-.136.371-.202.654-.202.349 0 .704.076 1.064.226l.213-.467a2.544 2.544 0 0 0-1.4-.402c-.5 0-.905.134-1.22.407-.313.27-.47.623-.47 1.065 0 .531.21.854.632 1.156 0 0 .775.436 1.163.645.418.231.648.506.648.83a.737.737 0 0 1-.3.604c-.19.144-.451.216-.783.216-.357 0-.752-.106-1.19-.322l-.237.467c.509.337 1.03.506 1.573.506.581 0 1.04-.147 1.384-.442.344-.294.516-.673.516-1.135l.006.003c0-.529-.215-.848-.648-1.148z" class="colorDE8A03 svgShape"/><path fill="#4db8f1" d="M16.405 5.768c-.115 0-.193.014-.274.032v.013h.014c.054.102.146.177.214.268.054.105.1.21.154.314l.014-.015c.094-.065.14-.169.14-.327-.04-.046-.046-.092-.08-.137-.04-.066-.126-.098-.18-.15l-.002.002z" class="color105E86 svgShape"/><path fill="#4db8f1" d="M23.695 13.2a3.215 3.215 0 0 0-.695-.663c-.214-.143-.682-.344-.77-.584l-.013-.014c.146-.013.32-.065.46-.104.227-.059.435-.046.67-.104.106-.026.213-.059.32-.092v-.059c-.12-.118-.21-.278-.334-.388a8.86 8.86 0 0 0-1.104-.808c-.21-.132-.476-.216-.697-.328-.08-.039-.214-.059-.26-.125-.12-.143-.19-.334-.275-.505-.192-.361-.38-.761-.547-1.142-.12-.257-.193-.513-.34-.749-.69-1.116-1.437-1.793-2.586-2.454-.247-.137-.543-.196-.856-.269-.167-.008-.334-.02-.5-.027-.11-.046-.216-.171-.31-.231-.38-.236-1.364-.746-1.644-.071-.18.426.267.846.422 1.062.115.15.26.322.34.491.047.114.06.231.107.35.106.289.207.61.347.881.073.137.153.282.247.405.054.072.146.105.167.223-.094.134-.1.328-.154.491-.24.743-.146 1.662.194 2.209.107.163.362.524.703.386.3-.118.234-.491.32-.82.02-.079.007-.131.048-.184v.015c.094.185.188.36.274.545.206.322.566.656.867.879.16.118.287.322.487.395v-.02h-.015c-.043-.057-.1-.084-.154-.131a3.384 3.384 0 0 1-.35-.393 8.58 8.58 0 0 1-.747-1.196c-.11-.206-.202-.428-.29-.631-.04-.078-.04-.196-.107-.236-.1.143-.247.268-.32.445-.127.283-.14.63-.188.992-.027.007-.014 0-.027.014-.214-.051-.287-.269-.367-.452-.2-.466-.233-1.215-.06-1.753.047-.137.247-.571.167-.703-.042-.125-.174-.196-.247-.297a2.444 2.444 0 0 1-.24-.419c-.16-.367-.24-.774-.414-1.141-.08-.17-.22-.348-.334-.504-.127-.177-.267-.301-.368-.511-.033-.072-.08-.191-.027-.269.014-.053.042-.074.094-.088.088-.071.335.022.422.061.247.098.455.19.662.328.094.065.195.189.315.222h.14c.214.046.455.014.655.072.355.112.675.275.962.452a5.885 5.885 0 0 1 2.085 2.244c.08.151.115.29.188.447.14.324.313.651.455.964.14.309.275.625.476.881.1.137.502.209.682.281.133.059.34.113.46.185.23.137.454.295.67.446.11.075.443.239.463.371-.535-.014-.95.039-1.297.185-.1.039-.26.039-.274.164.055.052.063.137.11.21.08.131.218.307.346.4.14.108.28.212.427.304.26.157.555.25.81.408.145.092.293.209.44.307.073.049.12.138.214.169V13.6c-.046-.059-.06-.144-.105-.21-.067-.066-.134-.125-.2-.19z" class="color105E86 svgShape"/></svg></svg>