<svg xmlns="http://www.w3.org/2000/svg" width="943.091" height="211.654"><path fill="#dc3e15" d="M136.488 84.006c.246 1.535.309 112.523.075 114.945-19.032-4.492-38.036-8.98-57.118-13.484l0-78.238C69.621 103.424 59.832 99.635 50.047 95.85c-.063.035-.117.054-.168.09-.043.031-.098.078-.102.121-.031.293-.07.586-.07.883-.004 31.613-.004 63.23-.004 94.765.438.535 1.004.602 1.496.781 27.969 10.379 55.946 20.747 83.918 31.125.969.36 1.848.536 2.922.223 15.348-4.414 30.711-8.777 46.07-13.156.223-.067.446-.145.762-.246l0-133.246c-4.41-1.215-8.781-2.43-13.156-3.625-11.137-3.043-22.281-6.063-33.41-9.129-1.09-.301-2.043-.278-3.114.113-27.511 10.074-55.035 20.117-82.55 30.164-.543.199-1.075.422-1.532.902 28.461-3.871 56.922-7.738 85.379-11.609zM344.594 155.19l-11.696 0 0 9.289 11.215 0c.66.597.473 1.164.473 1.668.019 3.312.008 6.629.012 9.945.004 3.961.668 7.793 2.55 11.324 3.84 7.192 9.899 11.055 18.125 11.52 2.7.152 5.395.043 8.028-.684.453-.125.894-.301 1.394-.473l0-9.613c-.531-.262-.898.16-1.308.321-2.981 1.167-6.035 1.496-9.172.832-2.981-.637-5.215-2.274-6.645-4.969-.902-1.707-1.433-3.535-1.601-5.422-.426-4.719-.129-9.449-.199-14.285l26.785 0c.379.48.234.972.234 1.426.016 3.554-.039 7.109.02 10.66.105 6.285 2.082 11.843 6.695 16.34 3.609 3.511 7.98 5.394 12.984 5.816 2.871.242 5.754.176 8.578-.523.633-.153 1.301-.231 1.848-.723l0-9.668c-1.82.687-3.535 1.332-5.383 1.558-1.875.227-3.718.141-5.531-.304-3.039-.75-5.203-2.59-6.504-5.399-.906-1.961-1.41-4.047-1.461-6.187-.09-4.141-.055-8.289-.066-12.434 0-.164.082-.328.172-.664l15.976 0 0-9.304-16.152 0 0-59.18-11.129 0c-.082 2.765-.027 5.578-.039 8.387-.008 2.781 0 5.566 0 8.347l0 42.34-27.016 0 0-59.07-11.144 0c-.09 2.097-.028 4.258-.039 6.414-.012 2.187-.004 4.379-.004 6.57l0 46.145zM233.621 142.811c.106 9.312 1.535 18.133 5.582 26.402 6.254 12.777 16.551 20.445 30.524 23.32 8.343 1.719 16.707 1.676 24.898-.836 13.383-4.105 22.355-12.91 27.359-25.73 3.231-8.266 4.047-16.887 3.485-25.668-.375-5.812-1.367-11.516-3.41-17.004-5.926-15.941-17.329-25.543-34.305-28.316-9.441-1.543-18.785-.789-27.672 3.058-11.289 4.887-18.695 13.34-22.977 24.625-2.488 6.567-3.421 13.395-3.484 20.149zm80.051 1.582c-.07 1.34-.117 3.293-.277 5.238-.485 5.82-1.696 11.473-4.336 16.742-3.512 7.008-8.766 12.223-16.278 15.008-3.679 1.363-7.508 1.961-11.433 2.043-13.129.273-23.153-5.039-29.856-16.238-3.316-5.539-5.047-11.629-5.601-18-.715-8.164-.02-16.196 3.089-23.899 3.36-8.332 8.899-14.668 17.352-18.258 5.348-2.269 10.957-2.824 16.727-2.324 12.593 1.09 21.511 7.301 26.734 18.641 2.984 6.48 3.777 13.402 3.879 21.047zM715.293 190.881l0-10c-.461-.312-.805.008-1.168.172-3.957 1.801-8.102 2.867-12.457 3.164-7.688.52-14.293-1.762-19.609-7.367-3.797-4.004-6.317-8.75-8.032-13.926-2.148-6.469-2.867-13.156-2.941-20.031.809.148.859.836 1.121 1.289 2.484 4.265 5.785 7.676 10.383 9.742 2.644 1.188 5.426 1.852 8.32 2.039 4.098.266 8.153.039 12.082-1.246 8.063-2.645 13.477-8.078 16.27-15.879 3.086-8.625 2.914-17.355-.492-25.875-4.899-12.258-16.012-19.141-29.582-18.598-9.008.36-16.067 4.223-21.282 11.43-3.582 4.949-5.652 10.531-6.871 16.445-1.687 8.188-1.816 16.45-1.125 24.747.649 7.773 2.297 15.316 5.422 22.511 2.902 6.684 6.918 12.567 12.781 17.098 6.016 4.648 12.871 6.926 20.492 7.023 4.395.051 8.743-.265 13-1.41 1.211-.328 2.407-.711 3.688-1.328zm-43.504-65.234c.063-5.028 1.813-10.965 6.246-15.985 5.707-6.465 14.125-7.258 20.637-4.449 5.344 2.305 8.543 6.582 10.133 11.996 1.691 5.77 1.535 11.59-.344 17.297-1.691 5.145-4.914 9.059-10.168 11.004-3.969 1.465-8.078 1.652-12.188.617-8.585-2.16-14.363-9.855-14.316-20.48zM733.988 144.17c1.09 15.789 2.184 31.707 3.293 47.734l44.891 0 0-9.574c-.008-.011-.035-.062-.078-.097-.043-.039-.098-.075-.153-.09-.113-.035-.23-.074-.347-.074-11.449 0-22.899 0-34.586 0-.731-9.34-1.36-18.622-1.953-27.872.75-.382 1.347-.179 1.925-.164 4.668.133 9.34.446 14-.211 5.981-.847 11.512-2.742 16.266-6.543 4.875-3.894 7.774-8.972 8.863-15.003 1.106-6.082.985-12.168-1.136-18.051-3.16-8.774-9.473-14.465-18.219-17.653-5.492-2.003-11.211-2.367-17-2.207-4.328.118-8.606.551-12.762 1.829-1.375.425-2.695.972-3.972 1.628-.5.258-.891.528-.887 1.192.023 3.539.012 7.082.012 10.719.64.046.988-.309 1.363-.528 4.902-2.886 10.137-4.812 15.851-5.328 4.848-.441 9.606-.051 14.075 1.977 6.929 3.14 10.882 8.468 11.714 16.011.325 2.918.204 5.805-.57 8.629-1.578 5.782-5.363 9.66-10.89 11.938-3.301 1.359-6.774 2.004-10.325 2.125-6.054.199-12.105.07-18.136-.594-.336-.039-.7-.18-1.239.207zM563.445 127.463l-48.828 0c-.211-2.434.215-4.691.676-6.934.691-3.343 1.965-6.453 4.102-9.171 3.378-4.301 7.918-6.594 13.304-7.309 8.84-1.172 16.871.934 24.168 5.934.442.3.895.578 1.348.859.039.027.109.004.18.004.332-.477.168-1.024.175-1.539.016-2.25-.07-4.504.035-6.746.067-1.301-.425-2.035-1.519-2.696-3.563-2.164-7.383-3.648-11.469-4.468-6.164-1.239-12.383-1.578-18.574-.407-10.324 1.961-17.203 8.094-21.141 17.598-1.531 3.699-2.351 7.578-2.707 11.539-.609 6.774-.312 13.481 2.004 19.981 2.981 8.359 7.985 15.093 16.196 19.07 8.121 3.934 16.543 4.16 24.949 1.082 7.316-2.68 11.894-8.141 14.621-15.223 1.57-4.078 2.265-8.34 2.453-12.668.129-2.882.027-5.773.027-8.906zm-11.425 9.434c-.043 4.949-.911 9.527-3.743 13.578-1.57 2.242-3.593 4.027-6.183 4.976-6.223 2.282-12.281 2-17.817-1.843-5.789-4.024-8.5-9.875-9.621-16.711 12.457 0 24.782 0 37.364 0zM601.48 141.178l0 8.914c.719.332 1.383.184 2.028.187 3.715.036 7.433-.085 11.14.313 3.114.336 6.161.934 9.032 2.203 5.793 2.563 8.847 7.031 9.297 13.258.175 2.43.117 4.859-.481 7.234-1.476 5.867-5.433 9.172-11.285 10.36-8.332 1.687-16.059.105-23.188-4.442-.402-.254-.796-.527-1.191-.793-.34-.23-.684-.457-1.301-.875-.015 1.957-.031 3.684-.039 5.41-.008 1.711 0 3.426 0 5.176 3.289 2.008 6.781 3.356 10.477 4.199 6.922 1.579 13.89 1.977 20.824.2 6.93-1.778 12.383-5.575 15.629-12.059 2.144-4.289 2.371-8.879 1.887-13.531-.282-2.723-.973-5.352-2.164-7.84-2.332-4.871-6.168-8.23-11.008-10.535-1.453-.688-2.992-1.199-4.496-1.789-.371-.145-.844-.102-1.11-.656 2.293-.395 4.559-.778 6.719-1.567 7.402-2.699 13.035-7.379 14.914-15.121 2.488-10.242.027-19.379-7.992-26.676-4.672-4.246-10.297-6.66-16.52-7.672-7.902-1.285-15.754-1.05-23.496 1.141-2.254.637-4.386 1.562-6.429 2.707-.614.344-1.02.707-1.012 1.5.043 3.43.031 6.863.047 10.301 0 .094.109.187.234.383.527-.352 1.055-.707 1.582-1.063 8.93-5.969 18.66-7.695 29.137-5.254 2.828.66 5.379 1.973 7.648 3.789 3.742 3.004 5.739 6.918 6.141 11.621.215 2.485.082 4.957-.578 7.395-1.094 4.035-3.457 7.098-7.043 9.269-3.172 1.918-6.676 2.868-10.309 3.457-4.937.801-9.914.657-14.886.676-.704 0-1.43-.148-2.208.18zM495.109 162.733l0-10.946c-.757 0-1.214.528-1.754.844-5.015 2.973-10.398 4.457-16.277 4.141-8.652-.469-14.887-4.684-19.117-11.993-1.898-3.285-2.918-6.871-3.316-10.609-.547-5.105-.344-10.172 1.273-15.101 3.082-9.387 11.078-15.165 21.074-15.344 5.946-.11 11.344 1.508 16.293 4.711.492.316.91.765 1.656.906l0-10.156c-.222-.364-.742-.559-1.214-.789-10.805-5.176-21.793-5.727-32.786-.785-7.89 3.546-13.074 9.761-15.777 17.796-3.726 11.09-3.184 22.133 2.086 32.618 5.363 10.664 14.41 16.476 26.355 17.902 6.274.746 12.442.332 18.426-1.809 1.012-.363 2.02-.738 3.078-1.386zM431.367 95.944l-10.664 0c-.402 1.339-.558 64.777-.195 68.328 1.285.316 8.371.406 10.855.136.246-1.375.278-66.562.004-68.464zM418.852 189.248c.078 4.035 3.332 7.063 7.488 6.965 4.152-.098 7.265-3.281 7.152-7.309-.113-3.984-3.441-7.066-7.539-6.984-4.172.086-7.18 3.188-7.101 7.328z" transform="matrix(1.27175 0 0 -1.28344 -60.075 289.533)"/></svg>